<svg xmlns="http://www.w3.org/2000/svg" xmlns:xlink="http://www.w3.org/1999/xlink" width="200" zoomAndPan="magnify" viewBox="0 0 150 149.999998" height="200" preserveAspectRatio="xMidYMid meet" version="1.0"><defs><g/></defs><path fill="rgb(100%, 100%, 100%)" d="M 29.976562 34.152344 C 16.175781 34.152344 5 45.355469 5 59.152344 C 5 72.953125 16.175781 84.152344 29.976562 84.152344 C 43.800781 84.152344 55 72.953125 55 59.152344 C 55 45.355469 43.800781 34.152344 29.976562 34.152344 Z M 30 79.152344 C 18.949219 79.152344 10 70.203125 10 59.152344 C 10 48.105469 18.949219 39.152344 30 39.152344 C 41.050781 39.152344 50 48.105469 50 59.152344 C 50 70.203125 41.050781 79.152344 30 79.152344 Z M 29.449219 46.652344 L 29.300781 46.652344 C 28.300781 46.652344 27.5 47.453125 27.5 48.453125 L 27.5 60.253906 C 27.5 61.128906 27.949219 61.953125 28.726562 62.402344 L 39.101562 68.628906 C 39.949219 69.128906 41.050781 68.878906 41.550781 68.027344 C 42.074219 67.179688 41.800781 66.054688 40.925781 65.554688 L 31.25 59.804688 L 31.25 48.453125 C 31.25 47.453125 30.449219 46.652344 29.449219 46.652344 Z M 29.449219 46.652344 " fill-opacity="1" fill-rule="nonzero"/><g fill="rgb(100%, 100%, 100%)" fill-opacity="1"><g transform="translate(69.827582, 71.719999)"><g><path d="M 6 -8.609375 C 5.300781 -8.609375 4.753906 -8.320312 4.359375 -7.75 C 3.972656 -7.175781 3.78125 -6.382812 3.78125 -5.375 C 3.78125 -3.289062 4.578125 -2.25 6.171875 -2.25 C 6.648438 -2.25 7.113281 -2.316406 7.5625 -2.453125 C 8.007812 -2.585938 8.460938 -2.75 8.921875 -2.9375 L 8.921875 -0.453125 C 8.015625 -0.046875 6.988281 0.15625 5.84375 0.15625 C 4.207031 0.15625 2.953125 -0.316406 2.078125 -1.265625 C 1.203125 -2.222656 0.765625 -3.597656 0.765625 -5.390625 C 0.765625 -6.515625 0.976562 -7.503906 1.40625 -8.359375 C 1.832031 -9.210938 2.441406 -9.867188 3.234375 -10.328125 C 4.023438 -10.785156 4.957031 -11.015625 6.03125 -11.015625 C 7.207031 -11.015625 8.328125 -10.757812 9.390625 -10.25 L 8.5 -7.9375 C 8.101562 -8.125 7.703125 -8.28125 7.296875 -8.40625 C 6.898438 -8.539062 6.46875 -8.609375 6 -8.609375 Z M 6 -8.609375 "/></g></g></g><g fill="rgb(100%, 100%, 100%)" fill-opacity="1"><g transform="translate(79.689226, 71.719999)"><g><path d="M 9.03125 -4.21875 C 9.03125 -2.84375 8.660156 -1.769531 7.921875 -1 C 7.179688 -0.226562 6.144531 0.15625 4.8125 0.15625 C 3.539062 0.15625 2.523438 -0.238281 1.765625 -1.03125 C 1.015625 -1.820312 0.640625 -2.882812 0.640625 -4.21875 C 0.640625 -5.59375 1.007812 -6.660156 1.75 -7.421875 C 2.488281 -8.179688 3.523438 -8.5625 4.859375 -8.5625 C 5.691406 -8.5625 6.421875 -8.382812 7.046875 -8.03125 C 7.679688 -7.675781 8.171875 -7.171875 8.515625 -6.515625 C 8.859375 -5.859375 9.03125 -5.09375 9.03125 -4.21875 Z M 3.578125 -4.21875 C 3.578125 -3.5 3.675781 -2.945312 3.875 -2.5625 C 4.070312 -2.1875 4.394531 -2 4.84375 -2 C 5.289062 -2 5.609375 -2.1875 5.796875 -2.5625 C 5.984375 -2.945312 6.078125 -3.5 6.078125 -4.21875 C 6.078125 -4.9375 5.984375 -5.476562 5.796875 -5.84375 C 5.609375 -6.21875 5.285156 -6.40625 4.828125 -6.40625 C 4.390625 -6.40625 4.070312 -6.222656 3.875 -5.859375 C 3.675781 -5.492188 3.578125 -4.945312 3.578125 -4.21875 Z M 3.578125 -4.21875 "/></g></g></g><g fill="rgb(100%, 100%, 100%)" fill-opacity="1"><g transform="translate(89.372781, 71.719999)"><g><path d="M 7 0 L 6.625 -1.046875 L 6.453125 -1.046875 C 6.210938 -0.660156 5.875 -0.363281 5.4375 -0.15625 C 5.007812 0.0507812 4.503906 0.15625 3.921875 0.15625 C 2.992188 0.15625 2.269531 -0.113281 1.75 -0.65625 C 1.238281 -1.195312 0.984375 -1.957031 0.984375 -2.9375 L 0.984375 -8.40625 L 3.890625 -8.40625 L 3.890625 -3.8125 C 3.890625 -3.257812 3.96875 -2.84375 4.125 -2.5625 C 4.28125 -2.28125 4.535156 -2.140625 4.890625 -2.140625 C 5.390625 -2.140625 5.742188 -2.335938 5.953125 -2.734375 C 6.171875 -3.128906 6.28125 -3.796875 6.28125 -4.734375 L 6.28125 -8.40625 L 9.1875 -8.40625 L 9.1875 0 Z M 7 0 "/></g></g></g><g fill="rgb(100%, 100%, 100%)" fill-opacity="1"><g transform="translate(99.553499, 71.719999)"><g><path d="M 6.3125 0 L 6.3125 -4.59375 C 6.3125 -5.144531 6.226562 -5.5625 6.0625 -5.84375 C 5.90625 -6.132812 5.648438 -6.28125 5.296875 -6.28125 C 4.804688 -6.28125 4.453125 -6.082031 4.234375 -5.6875 C 4.015625 -5.300781 3.90625 -4.632812 3.90625 -3.6875 L 3.90625 0 L 1 0 L 1 -8.40625 L 3.1875 -8.40625 L 3.5625 -7.375 L 3.71875 -7.375 C 3.96875 -7.769531 4.3125 -8.066406 4.75 -8.265625 C 5.1875 -8.460938 5.691406 -8.5625 6.265625 -8.5625 C 7.191406 -8.5625 7.914062 -8.289062 8.4375 -7.75 C 8.957031 -7.207031 9.21875 -6.445312 9.21875 -5.46875 L 9.21875 0 Z M 6.3125 0 "/></g></g></g><g fill="rgb(100%, 100%, 100%)" fill-opacity="1"><g transform="translate(109.734217, 71.719999)"><g><path d="M 5.125 -2.140625 C 5.507812 -2.140625 5.976562 -2.238281 6.53125 -2.4375 L 6.53125 -0.3125 C 6.132812 -0.144531 5.757812 -0.0234375 5.40625 0.046875 C 5.050781 0.117188 4.640625 0.15625 4.171875 0.15625 C 3.191406 0.15625 2.484375 -0.0820312 2.046875 -0.5625 C 1.617188 -1.039062 1.40625 -1.773438 1.40625 -2.765625 L 1.40625 -6.234375 L 0.390625 -6.234375 L 0.390625 -7.421875 L 1.6875 -8.328125 L 2.4375 -10.09375 L 4.328125 -10.09375 L 4.328125 -8.40625 L 6.40625 -8.40625 L 6.40625 -6.234375 L 4.328125 -6.234375 L 4.328125 -2.96875 C 4.328125 -2.414062 4.59375 -2.140625 5.125 -2.140625 Z M 5.125 -2.140625 "/></g></g></g><g fill="rgb(100%, 100%, 100%)" fill-opacity="1"><g transform="translate(116.724186, 71.719999)"><g><path d="M 3.921875 0 L 1.015625 0 L 1.015625 -8.40625 L 3.921875 -8.40625 Z M 0.9375 -10.5 C 0.9375 -10.9375 1.054688 -11.257812 1.296875 -11.46875 C 1.546875 -11.6875 1.941406 -11.796875 2.484375 -11.796875 C 3.015625 -11.796875 3.40625 -11.6875 3.65625 -11.46875 C 3.90625 -11.25 4.03125 -10.925781 4.03125 -10.5 C 4.03125 -9.65625 3.515625 -9.234375 2.484375 -9.234375 C 1.453125 -9.234375 0.9375 -9.65625 0.9375 -10.5 Z M 0.9375 -10.5 "/></g></g></g><g fill="rgb(100%, 100%, 100%)" fill-opacity="1"><g transform="translate(121.666138, 71.719999)"><g><path d="M 11.328125 0 L 11.328125 -4.578125 C 11.328125 -5.140625 11.25 -5.5625 11.09375 -5.84375 C 10.9375 -6.132812 10.691406 -6.28125 10.359375 -6.28125 C 9.910156 -6.28125 9.582031 -6.085938 9.375 -5.703125 C 9.164062 -5.328125 9.0625 -4.734375 9.0625 -3.921875 L 9.0625 0 L 6.15625 0 L 6.15625 -4.578125 C 6.15625 -5.140625 6.078125 -5.5625 5.921875 -5.84375 C 5.773438 -6.132812 5.539062 -6.28125 5.21875 -6.28125 C 4.757812 -6.28125 4.425781 -6.078125 4.21875 -5.671875 C 4.007812 -5.265625 3.90625 -4.601562 3.90625 -3.6875 L 3.90625 0 L 1 0 L 1 -8.40625 L 3.1875 -8.40625 L 3.5625 -7.375 L 3.71875 -7.375 C 3.945312 -7.757812 4.269531 -8.050781 4.6875 -8.25 C 5.113281 -8.457031 5.597656 -8.5625 6.140625 -8.5625 C 7.347656 -8.5625 8.195312 -8.191406 8.6875 -7.453125 L 8.921875 -7.453125 C 9.160156 -7.796875 9.488281 -8.066406 9.90625 -8.265625 C 10.332031 -8.460938 10.800781 -8.5625 11.3125 -8.5625 C 12.3125 -8.5625 13.046875 -8.304688 13.515625 -7.796875 C 13.992188 -7.285156 14.234375 -6.507812 14.234375 -5.46875 L 14.234375 0 Z M 11.328125 0 "/></g></g></g><g fill="rgb(100%, 100%, 100%)" fill-opacity="1"><g transform="translate(136.863012, 71.719999)"><g><path d="M 5.0625 0.15625 C 3.664062 0.15625 2.578125 -0.21875 1.796875 -0.96875 C 1.023438 -1.71875 0.640625 -2.78125 0.640625 -4.15625 C 0.640625 -5.570312 1 -6.660156 1.71875 -7.421875 C 2.4375 -8.179688 3.457031 -8.5625 4.78125 -8.5625 C 6.050781 -8.5625 7.03125 -8.226562 7.71875 -7.5625 C 8.414062 -6.90625 8.765625 -5.957031 8.765625 -4.71875 L 8.765625 -3.421875 L 3.578125 -3.421875 C 3.585938 -2.953125 3.753906 -2.582031 4.078125 -2.3125 C 4.410156 -2.050781 4.851562 -1.921875 5.40625 -1.921875 C 5.914062 -1.921875 6.382812 -1.96875 6.8125 -2.0625 C 7.238281 -2.15625 7.703125 -2.316406 8.203125 -2.546875 L 8.203125 -0.46875 C 7.753906 -0.238281 7.285156 -0.078125 6.796875 0.015625 C 6.316406 0.109375 5.738281 0.15625 5.0625 0.15625 Z M 4.890625 -6.578125 C 4.546875 -6.578125 4.257812 -6.46875 4.03125 -6.25 C 3.800781 -6.039062 3.664062 -5.707031 3.625 -5.25 L 6.125 -5.25 C 6.113281 -5.65625 6 -5.976562 5.78125 -6.21875 C 5.5625 -6.457031 5.265625 -6.578125 4.890625 -6.578125 Z M 4.890625 -6.578125 "/></g></g></g></svg>