<svg xmlns="http://www.w3.org/2000/svg" xmlns:xlink="http://www.w3.org/1999/xlink" width="100" zoomAndPan="magnify" viewBox="0 0 75 74.999997" height="100" preserveAspectRatio="xMidYMid meet" version="1.0"><defs><g/></defs><path fill="rgb(100%, 100%, 100%)" d="M 14.988281 17.078125 C 8.085938 17.078125 2.5 22.675781 2.5 29.578125 C 2.5 36.476562 8.085938 42.078125 14.988281 42.078125 C 21.898438 42.078125 27.5 36.476562 27.5 29.578125 C 27.5 22.675781 21.898438 17.078125 14.988281 17.078125 Z M 15 39.578125 C 9.476562 39.578125 5 35.101562 5 29.578125 C 5 24.050781 9.476562 19.578125 15 19.578125 C 20.523438 19.578125 25 24.050781 25 29.578125 C 25 35.101562 20.523438 39.578125 15 39.578125 Z M 14.726562 23.328125 L 14.648438 23.328125 C 14.148438 23.328125 13.75 23.726562 13.75 24.226562 L 13.75 30.125 C 13.75 30.5625 13.976562 30.976562 14.363281 31.203125 L 19.550781 34.3125 C 19.976562 34.5625 20.523438 34.4375 20.773438 34.015625 C 21.039062 33.589844 20.898438 33.027344 20.460938 32.777344 L 15.625 29.902344 L 15.625 24.226562 C 15.625 23.726562 15.226562 23.328125 14.726562 23.328125 Z M 14.726562 23.328125 " fill-opacity="1" fill-rule="nonzero"/><g fill="rgb(100%, 100%, 100%)" fill-opacity="1"><g transform="translate(34.92551, 32.576797)"><g><path d="M 3 -4.296875 C 2.65625 -4.296875 2.382812 -4.148438 2.1875 -3.859375 C 1.988281 -3.578125 1.890625 -3.1875 1.890625 -2.6875 C 1.890625 -1.644531 2.285156 -1.125 3.078125 -1.125 C 3.316406 -1.125 3.546875 -1.15625 3.765625 -1.21875 C 3.992188 -1.289062 4.222656 -1.375 4.453125 -1.46875 L 4.453125 -0.21875 C 4.003906 -0.0195312 3.492188 0.078125 2.921875 0.078125 C 2.097656 0.078125 1.46875 -0.15625 1.03125 -0.625 C 0.601562 -1.101562 0.390625 -1.796875 0.390625 -2.703125 C 0.390625 -3.253906 0.492188 -3.742188 0.703125 -4.171875 C 0.910156 -4.597656 1.210938 -4.925781 1.609375 -5.15625 C 2.003906 -5.382812 2.472656 -5.5 3.015625 -5.5 C 3.597656 -5.5 4.15625 -5.367188 4.6875 -5.109375 L 4.25 -3.96875 C 4.039062 -4.0625 3.835938 -4.140625 3.640625 -4.203125 C 3.441406 -4.265625 3.226562 -4.296875 3 -4.296875 Z M 3 -4.296875 "/></g></g></g><g fill="rgb(100%, 100%, 100%)" fill-opacity="1"><g transform="translate(39.85329, 32.576797)"><g><path d="M 4.515625 -2.109375 C 4.515625 -1.421875 4.328125 -0.882812 3.953125 -0.5 C 3.585938 -0.113281 3.070312 0.078125 2.40625 0.078125 C 1.769531 0.078125 1.257812 -0.117188 0.875 -0.515625 C 0.5 -0.910156 0.3125 -1.441406 0.3125 -2.109375 C 0.3125 -2.796875 0.492188 -3.328125 0.859375 -3.703125 C 1.234375 -4.085938 1.753906 -4.28125 2.421875 -4.28125 C 2.835938 -4.28125 3.203125 -4.191406 3.515625 -4.015625 C 3.835938 -3.835938 4.082031 -3.582031 4.25 -3.25 C 4.425781 -2.925781 4.515625 -2.546875 4.515625 -2.109375 Z M 1.796875 -2.109375 C 1.796875 -1.742188 1.84375 -1.46875 1.9375 -1.28125 C 2.03125 -1.09375 2.191406 -1 2.421875 -1 C 2.648438 -1 2.804688 -1.09375 2.890625 -1.28125 C 2.984375 -1.46875 3.03125 -1.742188 3.03125 -2.109375 C 3.03125 -2.460938 2.984375 -2.734375 2.890625 -2.921875 C 2.796875 -3.109375 2.632812 -3.203125 2.40625 -3.203125 C 2.1875 -3.203125 2.03125 -3.109375 1.9375 -2.921875 C 1.84375 -2.742188 1.796875 -2.472656 1.796875 -2.109375 Z M 1.796875 -2.109375 "/></g></g></g><g fill="rgb(100%, 100%, 100%)" fill-opacity="1"><g transform="translate(44.69208, 32.576797)"><g><path d="M 3.5 0 L 3.3125 -0.515625 L 3.21875 -0.515625 C 3.101562 -0.328125 2.9375 -0.179688 2.71875 -0.078125 C 2.5 0.0234375 2.242188 0.078125 1.953125 0.078125 C 1.492188 0.078125 1.132812 -0.0546875 0.875 -0.328125 C 0.625 -0.597656 0.5 -0.976562 0.5 -1.46875 L 0.5 -4.203125 L 1.9375 -4.203125 L 1.9375 -1.90625 C 1.9375 -1.632812 1.972656 -1.425781 2.046875 -1.28125 C 2.128906 -1.144531 2.257812 -1.078125 2.4375 -1.078125 C 2.6875 -1.078125 2.863281 -1.171875 2.96875 -1.359375 C 3.082031 -1.554688 3.140625 -1.890625 3.140625 -2.359375 L 3.140625 -4.203125 L 4.59375 -4.203125 L 4.59375 0 Z M 3.5 0 "/></g></g></g><g fill="rgb(100%, 100%, 100%)" fill-opacity="1"><g transform="translate(49.779299, 32.576797)"><g><path d="M 3.15625 0 L 3.15625 -2.296875 C 3.15625 -2.566406 3.113281 -2.773438 3.03125 -2.921875 C 2.945312 -3.066406 2.816406 -3.140625 2.640625 -3.140625 C 2.398438 -3.140625 2.222656 -3.039062 2.109375 -2.84375 C 2.003906 -2.644531 1.953125 -2.3125 1.953125 -1.84375 L 1.953125 0 L 0.5 0 L 0.5 -4.203125 L 1.59375 -4.203125 L 1.78125 -3.6875 L 1.859375 -3.6875 C 1.984375 -3.882812 2.15625 -4.03125 2.375 -4.125 C 2.59375 -4.226562 2.84375 -4.28125 3.125 -4.28125 C 3.59375 -4.28125 3.953125 -4.144531 4.203125 -3.875 C 4.460938 -3.601562 4.59375 -3.222656 4.59375 -2.734375 L 4.59375 0 Z M 3.15625 0 "/></g></g></g><g fill="rgb(100%, 100%, 100%)" fill-opacity="1"><g transform="translate(54.866518, 32.576797)"><g><path d="M 2.5625 -1.078125 C 2.75 -1.078125 2.984375 -1.125 3.265625 -1.21875 L 3.265625 -0.15625 C 3.066406 -0.0703125 2.878906 -0.015625 2.703125 0.015625 C 2.523438 0.0546875 2.316406 0.078125 2.078125 0.078125 C 1.585938 0.078125 1.234375 -0.0390625 1.015625 -0.28125 C 0.804688 -0.519531 0.703125 -0.890625 0.703125 -1.390625 L 0.703125 -3.109375 L 0.203125 -3.109375 L 0.203125 -3.703125 L 0.84375 -4.15625 L 1.21875 -5.046875 L 2.171875 -5.046875 L 2.171875 -4.203125 L 3.203125 -4.203125 L 3.203125 -3.109375 L 2.171875 -3.109375 L 2.171875 -1.484375 C 2.171875 -1.210938 2.300781 -1.078125 2.5625 -1.078125 Z M 2.5625 -1.078125 "/></g></g></g><g fill="rgb(100%, 100%, 100%)" fill-opacity="1"><g transform="translate(58.359346, 32.576797)"><g><path d="M 1.953125 0 L 0.515625 0 L 0.515625 -4.203125 L 1.953125 -4.203125 Z M 0.46875 -5.25 C 0.46875 -5.46875 0.523438 -5.628906 0.640625 -5.734375 C 0.765625 -5.835938 0.960938 -5.890625 1.234375 -5.890625 C 1.503906 -5.890625 1.703125 -5.832031 1.828125 -5.71875 C 1.953125 -5.613281 2.015625 -5.457031 2.015625 -5.25 C 2.015625 -4.820312 1.753906 -4.609375 1.234375 -4.609375 C 0.722656 -4.609375 0.46875 -4.820312 0.46875 -5.25 Z M 0.46875 -5.25 "/></g></g></g><g fill="rgb(100%, 100%, 100%)" fill-opacity="1"><g transform="translate(60.828798, 32.576797)"><g><path d="M 5.65625 0 L 5.65625 -2.28125 C 5.65625 -2.5625 5.613281 -2.773438 5.53125 -2.921875 C 5.457031 -3.066406 5.335938 -3.140625 5.171875 -3.140625 C 4.953125 -3.140625 4.789062 -3.039062 4.6875 -2.84375 C 4.582031 -2.65625 4.53125 -2.359375 4.53125 -1.953125 L 4.53125 0 L 3.078125 0 L 3.078125 -2.28125 C 3.078125 -2.5625 3.035156 -2.773438 2.953125 -2.921875 C 2.878906 -3.066406 2.765625 -3.140625 2.609375 -3.140625 C 2.378906 -3.140625 2.210938 -3.035156 2.109375 -2.828125 C 2.003906 -2.628906 1.953125 -2.300781 1.953125 -1.84375 L 1.953125 0 L 0.5 0 L 0.5 -4.203125 L 1.59375 -4.203125 L 1.78125 -3.6875 L 1.859375 -3.6875 C 1.972656 -3.875 2.132812 -4.019531 2.34375 -4.125 C 2.550781 -4.226562 2.789062 -4.28125 3.0625 -4.28125 C 3.664062 -4.28125 4.09375 -4.09375 4.34375 -3.71875 L 4.453125 -3.71875 C 4.578125 -3.894531 4.742188 -4.03125 4.953125 -4.125 C 5.160156 -4.226562 5.394531 -4.28125 5.65625 -4.28125 C 6.144531 -4.28125 6.507812 -4.148438 6.75 -3.890625 C 6.988281 -3.640625 7.109375 -3.253906 7.109375 -2.734375 L 7.109375 0 Z M 5.65625 0 "/></g></g></g><g fill="rgb(100%, 100%, 100%)" fill-opacity="1"><g transform="translate(68.422547, 32.576797)"><g><path d="M 2.53125 0.078125 C 1.832031 0.078125 1.285156 -0.109375 0.890625 -0.484375 C 0.503906 -0.859375 0.3125 -1.390625 0.3125 -2.078125 C 0.3125 -2.785156 0.488281 -3.328125 0.84375 -3.703125 C 1.207031 -4.085938 1.722656 -4.28125 2.390625 -4.28125 C 3.023438 -4.28125 3.515625 -4.113281 3.859375 -3.78125 C 4.203125 -3.445312 4.375 -2.972656 4.375 -2.359375 L 4.375 -1.703125 L 1.78125 -1.703125 C 1.789062 -1.472656 1.875 -1.289062 2.03125 -1.15625 C 2.195312 -1.019531 2.421875 -0.953125 2.703125 -0.953125 C 2.953125 -0.953125 3.179688 -0.972656 3.390625 -1.015625 C 3.609375 -1.066406 3.84375 -1.15625 4.09375 -1.28125 L 4.09375 -0.234375 C 3.875 -0.117188 3.640625 -0.0390625 3.390625 0 C 3.148438 0.0507812 2.863281 0.078125 2.53125 0.078125 Z M 2.4375 -3.28125 C 2.269531 -3.28125 2.128906 -3.226562 2.015625 -3.125 C 1.898438 -3.019531 1.832031 -2.851562 1.8125 -2.625 L 3.0625 -2.625 C 3.050781 -2.820312 2.988281 -2.976562 2.875 -3.09375 C 2.769531 -3.21875 2.625 -3.28125 2.4375 -3.28125 Z M 2.4375 -3.28125 "/></g></g></g></svg>