<svg xmlns="http://www.w3.org/2000/svg" xmlns:xlink="http://www.w3.org/1999/xlink" width="500" zoomAndPan="magnify" viewBox="0 0 375 374.999991" height="500" preserveAspectRatio="xMidYMid meet" version="1.0"><defs><g/></defs><path fill="rgb(100%, 100%, 100%)" d="M 74.9375 85.382812 C 40.4375 85.382812 12.5 113.382812 12.5 147.882812 C 12.5 182.382812 40.4375 210.382812 74.9375 210.382812 C 109.5 210.382812 137.5 182.382812 137.5 147.882812 C 137.5 113.382812 109.5 85.382812 74.9375 85.382812 Z M 75 197.882812 C 47.375 197.882812 25 175.507812 25 147.882812 C 25 120.257812 47.375 97.882812 75 97.882812 C 102.625 97.882812 125 120.257812 125 147.882812 C 125 175.507812 102.625 197.882812 75 197.882812 Z M 73.625 116.632812 L 73.25 116.632812 C 70.75 116.632812 68.75 118.632812 68.75 121.132812 L 68.75 150.632812 C 68.75 152.820312 69.875 154.882812 71.8125 156.007812 L 97.75 171.570312 C 99.875 172.820312 102.625 172.195312 103.875 170.070312 C 105.1875 167.945312 104.5 165.132812 102.3125 163.882812 L 78.125 149.507812 L 78.125 121.132812 C 78.125 118.632812 76.125 116.632812 73.625 116.632812 Z M 73.625 116.632812 " fill-opacity="1" fill-rule="nonzero"/><g fill="rgb(100%, 100%, 100%)" fill-opacity="1"><g transform="translate(174.568954, 179.299997)"><g><path d="M 15.015625 -21.5 C 13.265625 -21.5 11.898438 -20.785156 10.921875 -19.359375 C 9.953125 -17.929688 9.46875 -15.960938 9.46875 -13.453125 C 9.46875 -8.234375 11.453125 -5.625 15.421875 -5.625 C 16.617188 -5.625 17.78125 -5.789062 18.90625 -6.125 C 20.03125 -6.457031 21.160156 -6.859375 22.296875 -7.328125 L 22.296875 -1.125 C 20.035156 -0.125 17.476562 0.375 14.625 0.375 C 10.53125 0.375 7.390625 -0.8125 5.203125 -3.1875 C 3.023438 -5.5625 1.9375 -8.992188 1.9375 -13.484375 C 1.9375 -16.296875 2.460938 -18.765625 3.515625 -20.890625 C 4.578125 -23.015625 6.097656 -24.648438 8.078125 -25.796875 C 10.066406 -26.941406 12.398438 -27.515625 15.078125 -27.515625 C 18.015625 -27.515625 20.816406 -26.878906 23.484375 -25.609375 L 21.25 -19.828125 C 20.25 -20.304688 19.242188 -20.703125 18.234375 -21.015625 C 17.234375 -21.335938 16.160156 -21.5 15.015625 -21.5 Z M 15.015625 -21.5 "/></g></g></g><g fill="rgb(100%, 100%, 100%)" fill-opacity="1"><g transform="translate(199.223062, 179.299997)"><g><path d="M 22.578125 -10.5625 C 22.578125 -7.125 21.648438 -4.441406 19.796875 -2.515625 C 17.953125 -0.585938 15.367188 0.375 12.046875 0.375 C 8.847656 0.375 6.304688 -0.609375 4.421875 -2.578125 C 2.535156 -4.546875 1.59375 -7.207031 1.59375 -10.5625 C 1.59375 -13.988281 2.515625 -16.648438 4.359375 -18.546875 C 6.210938 -20.441406 8.8125 -21.390625 12.15625 -21.390625 C 14.21875 -21.390625 16.039062 -20.953125 17.625 -20.078125 C 19.207031 -19.203125 20.425781 -17.941406 21.28125 -16.296875 C 22.144531 -14.660156 22.578125 -12.75 22.578125 -10.5625 Z M 8.96875 -10.5625 C 8.96875 -8.75 9.207031 -7.367188 9.6875 -6.421875 C 10.164062 -5.484375 10.972656 -5.015625 12.109375 -5.015625 C 13.242188 -5.015625 14.039062 -5.484375 14.5 -6.421875 C 14.96875 -7.367188 15.203125 -8.75 15.203125 -10.5625 C 15.203125 -12.351562 14.960938 -13.707031 14.484375 -14.625 C 14.015625 -15.539062 13.210938 -16 12.078125 -16 C 10.960938 -16 10.164062 -15.539062 9.6875 -14.625 C 9.207031 -13.71875 8.96875 -12.363281 8.96875 -10.5625 Z M 8.96875 -10.5625 "/></g></g></g><g fill="rgb(100%, 100%, 100%)" fill-opacity="1"><g transform="translate(223.43195, 179.299997)"><g><path d="M 17.484375 0 L 16.5625 -2.609375 L 16.140625 -2.609375 C 15.535156 -1.648438 14.691406 -0.910156 13.609375 -0.390625 C 12.523438 0.117188 11.253906 0.375 9.796875 0.375 C 7.484375 0.375 5.679688 -0.296875 4.390625 -1.640625 C 3.109375 -2.984375 2.46875 -4.878906 2.46875 -7.328125 L 2.46875 -21.015625 L 9.71875 -21.015625 L 9.71875 -9.53125 C 9.71875 -8.164062 9.910156 -7.128906 10.296875 -6.421875 C 10.691406 -5.710938 11.335938 -5.359375 12.234375 -5.359375 C 13.484375 -5.359375 14.375 -5.847656 14.90625 -6.828125 C 15.4375 -7.816406 15.703125 -9.476562 15.703125 -11.8125 L 15.703125 -21.015625 L 22.953125 -21.015625 L 22.953125 0 Z M 17.484375 0 "/></g></g></g><g fill="rgb(100%, 100%, 100%)" fill-opacity="1"><g transform="translate(248.883746, 179.299997)"><g><path d="M 15.765625 0 L 15.765625 -11.46875 C 15.765625 -12.863281 15.5625 -13.914062 15.15625 -14.625 C 14.757812 -15.34375 14.117188 -15.703125 13.234375 -15.703125 C 12.003906 -15.703125 11.117188 -15.210938 10.578125 -14.234375 C 10.035156 -13.253906 9.765625 -11.578125 9.765625 -9.203125 L 9.765625 0 L 2.5 0 L 2.5 -21.015625 L 7.984375 -21.015625 L 8.890625 -18.421875 L 9.3125 -18.421875 C 9.9375 -19.410156 10.796875 -20.148438 11.890625 -20.640625 C 12.984375 -21.140625 14.238281 -21.390625 15.65625 -21.390625 C 17.988281 -21.390625 19.800781 -20.710938 21.09375 -19.359375 C 22.382812 -18.015625 23.03125 -16.117188 23.03125 -13.671875 L 23.03125 0 Z M 15.765625 0 "/></g></g></g><g fill="rgb(100%, 100%, 100%)" fill-opacity="1"><g transform="translate(274.335542, 179.299997)"><g><path d="M 12.796875 -5.359375 C 13.773438 -5.359375 14.945312 -5.601562 16.3125 -6.09375 L 16.3125 -0.796875 C 15.332031 -0.378906 14.398438 -0.0820312 13.515625 0.09375 C 12.628906 0.28125 11.59375 0.375 10.40625 0.375 C 7.96875 0.375 6.210938 -0.21875 5.140625 -1.40625 C 4.066406 -2.601562 3.53125 -4.441406 3.53125 -6.921875 L 3.53125 -15.59375 L 0.984375 -15.59375 L 0.984375 -18.53125 L 4.21875 -20.8125 L 6.09375 -25.234375 L 10.84375 -25.234375 L 10.84375 -21.015625 L 16 -21.015625 L 16 -15.59375 L 10.84375 -15.59375 L 10.84375 -7.40625 C 10.84375 -6.039062 11.492188 -5.359375 12.796875 -5.359375 Z M 12.796875 -5.359375 "/></g></g></g><g fill="rgb(100%, 100%, 100%)" fill-opacity="1"><g transform="translate(291.810463, 179.299997)"><g><path d="M 9.796875 0 L 2.546875 0 L 2.546875 -21.015625 L 9.796875 -21.015625 Z M 2.359375 -26.25 C 2.359375 -27.34375 2.660156 -28.15625 3.265625 -28.6875 C 3.867188 -29.21875 4.847656 -29.484375 6.203125 -29.484375 C 7.546875 -29.484375 8.523438 -29.207031 9.140625 -28.65625 C 9.765625 -28.113281 10.078125 -27.3125 10.078125 -26.25 C 10.078125 -24.125 8.785156 -23.0625 6.203125 -23.0625 C 3.640625 -23.0625 2.359375 -24.125 2.359375 -26.25 Z M 2.359375 -26.25 "/></g></g></g><g fill="rgb(100%, 100%, 100%)" fill-opacity="1"><g transform="translate(304.165343, 179.299997)"><g><path d="M 28.3125 0 L 28.3125 -11.4375 C 28.3125 -12.851562 28.113281 -13.914062 27.71875 -14.625 C 27.332031 -15.34375 26.722656 -15.703125 25.890625 -15.703125 C 24.773438 -15.703125 23.957031 -15.222656 23.4375 -14.265625 C 22.914062 -13.316406 22.65625 -11.828125 22.65625 -9.796875 L 22.65625 0 L 15.375 0 L 15.375 -11.4375 C 15.375 -12.851562 15.1875 -13.914062 14.8125 -14.625 C 14.445312 -15.34375 13.851562 -15.703125 13.03125 -15.703125 C 11.882812 -15.703125 11.050781 -15.191406 10.53125 -14.171875 C 10.019531 -13.160156 9.765625 -11.503906 9.765625 -9.203125 L 9.765625 0 L 2.5 0 L 2.5 -21.015625 L 7.984375 -21.015625 L 8.890625 -18.421875 L 9.3125 -18.421875 C 9.875 -19.390625 10.679688 -20.125 11.734375 -20.625 C 12.796875 -21.132812 14 -21.390625 15.34375 -21.390625 C 18.375 -21.390625 20.503906 -20.46875 21.734375 -18.625 L 22.296875 -18.625 C 22.890625 -19.488281 23.710938 -20.164062 24.765625 -20.65625 C 25.828125 -21.144531 27 -21.390625 28.28125 -21.390625 C 30.757812 -21.390625 32.59375 -20.753906 33.78125 -19.484375 C 34.96875 -18.210938 35.5625 -16.273438 35.5625 -13.671875 L 35.5625 0 Z M 28.3125 0 "/></g></g></g><g fill="rgb(100%, 100%, 100%)" fill-opacity="1"><g transform="translate(342.157528, 179.299997)"><g><path d="M 12.65625 0.375 C 9.15625 0.375 6.4375 -0.554688 4.5 -2.421875 C 2.5625 -4.285156 1.59375 -6.9375 1.59375 -10.375 C 1.59375 -13.925781 2.488281 -16.648438 4.28125 -18.546875 C 6.082031 -20.441406 8.644531 -21.390625 11.96875 -21.390625 C 15.132812 -21.390625 17.578125 -20.5625 19.296875 -18.90625 C 21.023438 -17.257812 21.890625 -14.882812 21.890625 -11.78125 L 21.890625 -8.546875 L 8.921875 -8.546875 C 8.972656 -7.378906 9.40625 -6.457031 10.21875 -5.78125 C 11.03125 -5.113281 12.132812 -4.78125 13.53125 -4.78125 C 14.800781 -4.78125 15.96875 -4.898438 17.03125 -5.140625 C 18.101562 -5.390625 19.265625 -5.804688 20.515625 -6.390625 L 20.515625 -1.171875 C 19.378906 -0.585938 18.203125 -0.1875 16.984375 0.03125 C 15.773438 0.257812 14.332031 0.375 12.65625 0.375 Z M 12.234375 -16.453125 C 11.378906 -16.453125 10.660156 -16.179688 10.078125 -15.640625 C 9.503906 -15.109375 9.171875 -14.269531 9.078125 -13.125 L 15.3125 -13.125 C 15.28125 -14.132812 14.988281 -14.941406 14.4375 -15.546875 C 13.894531 -16.148438 13.160156 -16.453125 12.234375 -16.453125 Z M 12.234375 -16.453125 "/></g></g></g></svg>